<?xml version="1.0" encoding="utf-8"?>
<!-- Generator: Adobe Illustrator 16.0.4, SVG Export Plug-In . SVG Version: 6.00 Build 0)  -->
<!DOCTYPE svg PUBLIC "-//W3C//DTD SVG 1.1//EN" "http://www.w3.org/Graphics/SVG/1.1/DTD/svg11.dtd">
<svg version="1.1" id="レイヤー_1" xmlns="http://www.w3.org/2000/svg" xmlns:xlink="http://www.w3.org/1999/xlink" x="0px"
	 y="0px" width="752.747px" height="359.891px" viewBox="0 3820.055 752.747 359.891"
	 enable-background="new 0 3820.055 752.747 359.891" xml:space="preserve">
<g>
	<path fill="#013ABB" d="M129.121,4067.308c-2.748-8.241-13.736-24.726-21.978-38.462v151.1H63.187v-140.11
		c-10.989,30.22-27.473,57.692-41.209,76.923c-5.495-13.736-13.736-30.22-21.978-43.956c21.978-24.725,43.956-65.934,57.692-104.396
		H8.242v-41.208h54.945v-43.956c-16.484,2.747-32.967,5.494-46.704,8.241c-2.747-10.989-8.242-27.473-13.736-35.714
		c43.956-8.242,90.66-19.231,120.879-32.968l30.22,35.715c-13.736,5.494-30.22,10.989-46.703,13.736v54.945h41.208v43.956h-41.208
		v10.988c10.989,8.242,41.208,41.209,49.45,49.451L129.121,4067.308z M321.429,4133.242c5.494,0,8.241-5.495,8.241-46.704
		c8.242,8.242,27.473,13.736,38.462,16.483c-2.747,54.945-13.736,68.682-41.209,68.682h-24.725
		c-32.967,0-41.209-13.736-41.209-52.197v-90.66h-21.979c-5.494,65.935-21.978,120.88-90.659,151.1
		c-5.495-10.989-16.483-27.473-27.473-35.715c57.692-24.725,68.682-65.934,71.429-115.385h-30.22v-131.867h30.22
		c-5.495-16.484-19.23-41.209-30.22-60.44l38.461-16.483c13.736,19.231,30.22,46.703,35.714,65.935l-27.473,10.989h90.659
		l-30.219-10.989c10.989-19.231,24.725-46.703,32.967-65.935l46.703,13.736c-13.736,21.979-27.473,46.703-38.462,60.439h35.715
		v131.868h-43.956v90.659c0,10.989,0,13.736,5.494,13.736h13.736V4133.242z M299.45,3935.439h-93.406v52.198h96.154v-52.198H299.45z
		"/>
	<path fill="#013ABB" d="M483.517,4089.286c16.483,24.725,43.956,35.714,85.165,38.461c43.956,2.747,131.868,0,184.065-2.747
		c-5.494,10.989-10.989,32.967-13.736,46.703c-46.703,2.747-123.626,2.747-170.329,0s-79.671-13.736-104.396-43.956
		c-16.483,13.736-32.968,30.22-54.945,46.703l-24.726-46.703c16.483-10.989,35.715-21.978,52.198-35.714v-79.671h-43.956v-43.956
		h87.912v120.88H483.517z M456.044,3916.209c-10.989-19.23-38.462-43.956-63.187-60.439l32.967-27.473
		c21.978,16.483,52.197,41.209,63.187,57.692L456.044,3916.209z M601.648,3918.956c-2.747-13.736-2.747-24.726-5.494-38.462H530.22
		v-43.956h107.143c5.495,109.891,30.22,200.55,109.891,241.759c-10.989,8.241-27.473,24.725-35.715,35.714
		c-46.703-27.473-74.176-71.429-93.406-126.373c-19.23,54.944-49.45,96.153-90.659,126.373
		c-8.242-8.241-24.726-27.473-35.715-35.714c54.945-32.967,82.418-87.912,96.154-162.088L601.648,3918.956z"/>
</g>
</svg>
